# xmcd
#
# Track frame offsets:
#	150
#	13058
#	27194
#	47176
#	59717
#	75873
#	93109
#	116788
#	132222
#	152746
#
# Disc length: 2224 seconds
#
# Revision: 0
# Processed by: cddbd v1.5.1PL0 Copyright (c) Steve Scherf et al.
# Submitted via: dBpowerAMP V4.0
#
DISCID=7808ae0a
DTITLE=Eyub - Don't Break My Heart
DYEAR=2003
DGENRE=Country
TTITLE0=Don't Break My Heart
TTITLE1=My Soul
TTITLE2=Don't Leave Me
TTITLE3=Sadness
TTITLE4=I Might Not See You Again
TTITLE5=Come
TTITLE6=Write To Me
TTITLE7=I Wait To You
TTITLE8=What Should I Write
TTITLE9=Ony You
EXTD=Eyûb
EXTT0=
EXTT1=
EXTT2=
EXTT3=
EXTT4=
EXTT5=
EXTT6=
EXTT7=
EXTT8=
EXTT9=
PLAYORDER=
